<svg id="Layer_1" data-name="Layer 1" xmlns="http://www.w3.org/2000/svg" viewBox="0 0 149.66 196.61"><defs><style>.cls-1{fill:#00aab9;}.cls-1,.cls-2{fill-rule:evenodd;}.cls-2{fill:#fff;}</style></defs><polygon class="cls-1" points="27.6 75.77 1.65 0 41.09 66.95 27.6 75.77"/><polygon class="cls-1" points="42.07 89.05 36.13 91.12 69.37 169.16 98.45 134.15 146.67 196.61 103.79 102.4 80.34 130.59 76.19 126.43 59.58 126.43 51.86 104.47 42.07 89.05"/><polygon class="cls-2" points="42.93 156.57 5.26 195.7 5.26 143.23 17.43 131.06 17.43 84.37 48.03 72.2 66.09 94.18 56.27 99.28 44.11 87.11 35.23 90.22 58.88 144.53 48.61 154.79 37.44 140.48 42.93 156.57"/><polygon class="cls-2" points="62.15 79.49 56.69 73.89 62 68.58 68.05 77.28 62.15 79.49"/><polygon class="cls-2" points="70.7 91.74 66.13 84.21 71 80.67 75.28 90.56 70.7 91.74"/><polygon class="cls-2" points="59.02 109.8 58.34 106.07 77.69 97.75 80.57 107.26 59.02 109.8"/><polygon class="cls-2" points="62.59 122.53 61.91 119.47 80.57 112.18 82.1 121.17 62.59 122.53"/></svg>